solid OpenSCAD_Model
  facet normal 0.04906768556344164 0.9987954556531818 0
    outer loop
      vertex -0.2450428530573845 -2.4879618138074875 -4
      vertex 0 -2.5 4
      vertex 0 -2.5 -4
    endloop
  endfacet
  facet normal 0.04906768556344164 0.9987954556531818 0
    outer loop
      vertex -0.2450428530573845 -2.4879618138074875 -4
      vertex -0.2450428530573845 -2.4879618138074875 4
      vertex 0 -2.5 4
    endloop
  endfacet
  facet normal 0.14673046562892958 0.9891765112740585 0
    outer loop
      vertex -0.48772580176591873 -2.4519632011651993 -4
      vertex -0.2450428530573845 -2.4879618138074875 4
      vertex -0.2450428530573845 -2.4879618138074875 -4
    endloop
  endfacet
  facet normal 0.14673046562892958 0.9891765112740585 0
    outer loop
      vertex -0.48772580176591873 -2.4519632011651993 -4
      vertex -0.48772580176591873 -2.4519632011651993 4
      vertex -0.2450428530573845 -2.4879618138074875 4
    endloop
  endfacet
  facet normal 0.24298018143504363 0.9700312528108531 0
    outer loop
      vertex -0.7257116958498955 -2.3923508375883102 -4
      vertex -0.48772580176591873 -2.4519632011651993 4
      vertex -0.48772580176591873 -2.4519632011651993 -4
    endloop
  endfacet
  facet normal 0.24298018143504363 0.9700312528108531 0
    outer loop
      vertex -0.7257116958498955 -2.3923508375883102 -4
      vertex -0.7257116958498955 -2.3923508375883102 4
      vertex -0.48772580176591873 -2.4519632011651993 4
    endloop
  endfacet
  facet normal 0.336889864873561 0.9415440610749313 0
    outer loop
      vertex -0.9567085802555084 -2.3096988275647163 -4
      vertex -0.7257116958498955 -2.3923508375883102 4
      vertex -0.7257116958498955 -2.3923508375883102 -4
    endloop
  endfacet
  facet normal 0.336889864873561 0.9415440610749313 0
    outer loop
      vertex -0.9567085802555084 -2.3096988275647163 -4
      vertex -0.9567085802555084 -2.3096988275647163 4
      vertex -0.7257116958498955 -2.3923508375883102 4
    endloop
  endfacet
  facet normal 0.4275550727503879 0.9039893029043047 0
    outer loop
      vertex -1.1784918457269669 -2.2048031613230705 -4
      vertex -0.9567085802555084 -2.3096988275647163 4
      vertex -0.9567085802555084 -2.3096988275647163 -4
    endloop
  endfacet
  facet normal 0.4275550727503879 0.9039893029043047 0
    outer loop
      vertex -1.1784918457269669 -2.2048031613230705 -4
      vertex -1.1784918457269669 -2.2048031613230705 4
      vertex -0.9567085802555084 -2.3096988275647163 4
    endloop
  endfacet
  facet normal 0.5141027452311838 0.8577286093781414 0
    outer loop
      vertex -1.3889255821704865 -2.0786740332841873 -4
      vertex -1.1784918457269669 -2.2048031613230705 4
      vertex -1.1784918457269669 -2.2048031613230705 -4
    endloop
  endfacet
  facet normal 0.5141027452311838 0.8577286093781414 0
    outer loop
      vertex -1.3889255821704865 -2.0786740332841873 -4
      vertex -1.3889255821704865 -2.0786740332841873 4
      vertex -1.1784918457269669 -2.2048031613230705 4
    endloop
  endfacet
  facet normal 0.5956993111009283 0.8032075265794508 0
    outer loop
      vertex -1.5859832093119621 -1.932526133954525 -4
      vertex -1.3889255821704865 -2.0786740332841873 4
      vertex -1.3889255821704865 -2.0786740332841873 -4
    endloop
  endfacet
  facet normal 0.5956993111009283 0.8032075265794508 0
    outer loop
      vertex -1.5859832093119621 -1.932526133954525 -4
      vertex -1.5859832093119621 -1.932526133954525 4
      vertex -1.3889255821704865 -2.0786740332841873 4
    endloop
  endfacet
  facet normal 0.6715589557743871 0.740951124514441 0
    outer loop
      vertex -1.7677669525146484 -1.7677669525146484 -4
      vertex -1.5859832093119621 -1.932526133954525 4
      vertex -1.5859832093119621 -1.932526133954525 -4
    endloop
  endfacet
  facet normal 0.6715589557743871 0.740951124514441 0
    outer loop
      vertex -1.7677669525146484 -1.7677669525146484 -4
      vertex -1.7677669525146484 -1.7677669525146484 4
      vertex -1.5859832093119621 -1.932526133954525 4
    endloop
  endfacet
  facet normal 0.740951124514441 0.6715589557743871 0
    outer loop
      vertex -1.932526133954525 -1.5859832093119621 -4
      vertex -1.7677669525146484 -1.7677669525146484 4
      vertex -1.7677669525146484 -1.7677669525146484 -4
    endloop
  endfacet
  facet normal 0.740951124514441 0.6715589557743871 0
    outer loop
      vertex -1.932526133954525 -1.5859832093119621 -4
      vertex -1.932526133954525 -1.5859832093119621 4
      vertex -1.7677669525146484 -1.7677669525146484 4
    endloop
  endfacet
  facet normal 0.8032075265794508 0.5956993111009283 0
    outer loop
      vertex -2.0786740332841873 -1.3889255821704865 -4
      vertex -1.932526133954525 -1.5859832093119621 4
      vertex -1.932526133954525 -1.5859832093119621 -4
    endloop
  endfacet
  facet normal 0.8032075265794508 0.5956993111009283 0
    outer loop
      vertex -2.0786740332841873 -1.3889255821704865 -4
      vertex -2.0786740332841873 -1.3889255821704865 4
      vertex -1.932526133954525 -1.5859832093119621 4
    endloop
  endfacet
  facet normal 0.8577286093781414 0.5141027452311838 0
    outer loop
      vertex -2.2048031613230705 -1.1784918457269669 -4
      vertex -2.0786740332841873 -1.3889255821704865 4
      vertex -2.0786740332841873 -1.3889255821704865 -4
    endloop
  endfacet
  facet normal 0.8577286093781414 0.5141027452311838 0
    outer loop
      vertex -2.2048031613230705 -1.1784918457269669 -4
      vertex -2.2048031613230705 -1.1784918457269669 4
      vertex -2.0786740332841873 -1.3889255821704865 4
    endloop
  endfacet
  facet normal 0.9039893029043047 0.4275550727503879 0
    outer loop
      vertex -2.3096988275647163 -0.9567085802555084 -4
      vertex -2.2048031613230705 -1.1784918457269669 4
      vertex -2.2048031613230705 -1.1784918457269669 -4
    endloop
  endfacet
  facet normal 0.9039893029043047 0.4275550727503879 0
    outer loop
      vertex -2.3096988275647163 -0.9567085802555084 -4
      vertex -2.3096988275647163 -0.9567085802555084 4
      vertex -2.2048031613230705 -1.1784918457269669 4
    endloop
  endfacet
  facet normal 0.9415440610749313 0.336889864873561 0
    outer loop
      vertex -2.3923508375883102 -0.7257116958498955 -4
      vertex -2.3096988275647163 -0.9567085802555084 4
      vertex -2.3096988275647163 -0.9567085802555084 -4
    endloop
  endfacet
  facet normal 0.9415440610749313 0.336889864873561 0
    outer loop
      vertex -2.3923508375883102 -0.7257116958498955 -4
      vertex -2.3923508375883102 -0.7257116958498955 4
      vertex -2.3096988275647163 -0.9567085802555084 4
    endloop
  endfacet
  facet normal 0.9700312528108531 0.24298018143504363 0
    outer loop
      vertex -2.4519632011651993 -0.48772580176591873 -4
      vertex -2.3923508375883102 -0.7257116958498955 4
      vertex -2.3923508375883102 -0.7257116958498955 -4
    endloop
  endfacet
  facet normal 0.9700312528108531 0.24298018143504363 0
    outer loop
      vertex -2.4519632011651993 -0.48772580176591873 -4
      vertex -2.4519632011651993 -0.48772580176591873 4
      vertex -2.3923508375883102 -0.7257116958498955 4
    endloop
  endfacet
  facet normal 0.9891765112740585 0.14673046562892958 0
    outer loop
      vertex -2.4879618138074875 -0.2450428530573845 -4
      vertex -2.4519632011651993 -0.48772580176591873 4
      vertex -2.4519632011651993 -0.48772580176591873 -4
    endloop
  endfacet
  facet normal 0.9891765112740585 0.14673046562892958 0
    outer loop
      vertex -2.4879618138074875 -0.2450428530573845 -4
      vertex -2.4879618138074875 -0.2450428530573845 4
      vertex -2.4519632011651993 -0.48772580176591873 4
    endloop
  endfacet
  facet normal 0.9987954556531818 0.04906768556344164 0
    outer loop
      vertex -2.5 0 -4
      vertex -2.4879618138074875 -0.2450428530573845 4
      vertex -2.4879618138074875 -0.2450428530573845 -4
    endloop
  endfacet
  facet normal 0.9987954556531818 0.04906768556344164 0
    outer loop
      vertex -2.5 0 -4
      vertex -2.5 0 4
      vertex -2.4879618138074875 -0.2450428530573845 4
    endloop
  endfacet
  facet normal 0.9987954556531818 -0.04906768556344164 0
    outer loop
      vertex -2.4879618138074875 0.2450428530573845 -4
      vertex -2.5 0 4
      vertex -2.5 0 -4
    endloop
  endfacet
  facet normal 0.9987954556531818 -0.04906768556344164 0
    outer loop
      vertex -2.4879618138074875 0.2450428530573845 -4
      vertex -2.4879618138074875 0.2450428530573845 4
      vertex -2.5 0 4
    endloop
  endfacet
  facet normal 0.9891765112740585 -0.14673046562892958 0
    outer loop
      vertex -2.4519632011651993 0.48772580176591873 -4
      vertex -2.4879618138074875 0.2450428530573845 4
      vertex -2.4879618138074875 0.2450428530573845 -4
    endloop
  endfacet
  facet normal 0.9891765112740585 -0.14673046562892958 0
    outer loop
      vertex -2.4519632011651993 0.48772580176591873 -4
      vertex -2.4519632011651993 0.48772580176591873 4
      vertex -2.4879618138074875 0.2450428530573845 4
    endloop
  endfacet
  facet normal 0.9700312528108531 -0.24298018143504363 0
    outer loop
      vertex -2.3923508375883102 0.7257116958498955 -4
      vertex -2.4519632011651993 0.48772580176591873 4
      vertex -2.4519632011651993 0.48772580176591873 -4
    endloop
  endfacet
  facet normal 0.9700312528108531 -0.24298018143504363 0
    outer loop
      vertex -2.3923508375883102 0.7257116958498955 -4
      vertex -2.3923508375883102 0.7257116958498955 4
      vertex -2.4519632011651993 0.48772580176591873 4
    endloop
  endfacet
  facet normal 0.9415440610749313 -0.336889864873561 0
    outer loop
      vertex -2.3096988275647163 0.9567085802555084 -4
      vertex -2.3923508375883102 0.7257116958498955 4
      vertex -2.3923508375883102 0.7257116958498955 -4
    endloop
  endfacet
  facet normal 0.9415440610749313 -0.336889864873561 0
    outer loop
      vertex -2.3096988275647163 0.9567085802555084 -4
      vertex -2.3096988275647163 0.9567085802555084 4
      vertex -2.3923508375883102 0.7257116958498955 4
    endloop
  endfacet
  facet normal 0.9039893029043047 -0.4275550727503879 0
    outer loop
      vertex -2.2048031613230705 1.1784918457269669 -4
      vertex -2.3096988275647163 0.9567085802555084 4
      vertex -2.3096988275647163 0.9567085802555084 -4
    endloop
  endfacet
  facet normal 0.9039893029043047 -0.4275550727503879 0
    outer loop
      vertex -2.2048031613230705 1.1784918457269669 -4
      vertex -2.2048031613230705 1.1784918457269669 4
      vertex -2.3096988275647163 0.9567085802555084 4
    endloop
  endfacet
  facet normal 0.8577286093781414 -0.5141027452311838 0
    outer loop
      vertex -2.0786740332841873 1.3889255821704865 -4
      vertex -2.2048031613230705 1.1784918457269669 4
      vertex -2.2048031613230705 1.1784918457269669 -4
    endloop
  endfacet
  facet normal 0.8577286093781414 -0.5141027452311838 0
    outer loop
      vertex -2.0786740332841873 1.3889255821704865 -4
      vertex -2.0786740332841873 1.3889255821704865 4
      vertex -2.2048031613230705 1.1784918457269669 4
    endloop
  endfacet
  facet normal 0.8032075265794508 -0.5956993111009283 0
    outer loop
      vertex -1.932526133954525 1.5859832093119621 -4
      vertex -2.0786740332841873 1.3889255821704865 4
      vertex -2.0786740332841873 1.3889255821704865 -4
    endloop
  endfacet
  facet normal 0.8032075265794508 -0.5956993111009283 0
    outer loop
      vertex -1.932526133954525 1.5859832093119621 -4
      vertex -1.932526133954525 1.5859832093119621 4
      vertex -2.0786740332841873 1.3889255821704865 4
    endloop
  endfacet
  facet normal 0.740951124514441 -0.6715589557743871 0
    outer loop
      vertex -1.7677669525146484 1.7677669525146484 -4
      vertex -1.932526133954525 1.5859832093119621 4
      vertex -1.932526133954525 1.5859832093119621 -4
    endloop
  endfacet
  facet normal 0.740951124514441 -0.6715589557743871 0
    outer loop
      vertex -1.7677669525146484 1.7677669525146484 -4
      vertex -1.7677669525146484 1.7677669525146484 4
      vertex -1.932526133954525 1.5859832093119621 4
    endloop
  endfacet
  facet normal 0.6715589557743871 -0.740951124514441 0
    outer loop
      vertex -1.5859832093119621 1.932526133954525 -4
      vertex -1.7677669525146484 1.7677669525146484 4
      vertex -1.7677669525146484 1.7677669525146484 -4
    endloop
  endfacet
  facet normal 0.6715589557743871 -0.740951124514441 0
    outer loop
      vertex -1.5859832093119621 1.932526133954525 -4
      vertex -1.5859832093119621 1.932526133954525 4
      vertex -1.7677669525146484 1.7677669525146484 4
    endloop
  endfacet
  facet normal 0.5956993111009283 -0.8032075265794508 0
    outer loop
      vertex -1.3889255821704865 2.0786740332841873 -4
      vertex -1.5859832093119621 1.932526133954525 4
      vertex -1.5859832093119621 1.932526133954525 -4
    endloop
  endfacet
  facet normal 0.5956993111009283 -0.8032075265794508 0
    outer loop
      vertex -1.3889255821704865 2.0786740332841873 -4
      vertex -1.3889255821704865 2.0786740332841873 4
      vertex -1.5859832093119621 1.932526133954525 4
    endloop
  endfacet
  facet normal 0.5141027452311838 -0.8577286093781414 0
    outer loop
      vertex -1.1784918457269669 2.2048031613230705 -4
      vertex -1.3889255821704865 2.0786740332841873 4
      vertex -1.3889255821704865 2.0786740332841873 -4
    endloop
  endfacet
  facet normal 0.5141027452311838 -0.8577286093781414 0
    outer loop
      vertex -1.1784918457269669 2.2048031613230705 -4
      vertex -1.1784918457269669 2.2048031613230705 4
      vertex -1.3889255821704865 2.0786740332841873 4
    endloop
  endfacet
  facet normal 0.4275550727503879 -0.9039893029043047 0
    outer loop
      vertex -0.9567085802555084 2.3096988275647163 -4
      vertex -1.1784918457269669 2.2048031613230705 4
      vertex -1.1784918457269669 2.2048031613230705 -4
    endloop
  endfacet
  facet normal 0.4275550727503879 -0.9039893029043047 0
    outer loop
      vertex -0.9567085802555084 2.3096988275647163 -4
      vertex -0.9567085802555084 2.3096988275647163 4
      vertex -1.1784918457269669 2.2048031613230705 4
    endloop
  endfacet
  facet normal 0.336889864873561 -0.9415440610749313 0
    outer loop
      vertex -0.7257116958498955 2.3923508375883102 -4
      vertex -0.9567085802555084 2.3096988275647163 4
      vertex -0.9567085802555084 2.3096988275647163 -4
    endloop
  endfacet
  facet normal 0.336889864873561 -0.9415440610749313 0
    outer loop
      vertex -0.7257116958498955 2.3923508375883102 -4
      vertex -0.7257116958498955 2.3923508375883102 4
      vertex -0.9567085802555084 2.3096988275647163 4
    endloop
  endfacet
  facet normal 0.24298018143504363 -0.9700312528108531 0
    outer loop
      vertex -0.48772580176591873 2.4519632011651993 -4
      vertex -0.7257116958498955 2.3923508375883102 4
      vertex -0.7257116958498955 2.3923508375883102 -4
    endloop
  endfacet
  facet normal 0.24298018143504363 -0.9700312528108531 0
    outer loop
      vertex -0.48772580176591873 2.4519632011651993 -4
      vertex -0.48772580176591873 2.4519632011651993 4
      vertex -0.7257116958498955 2.3923508375883102 4
    endloop
  endfacet
  facet normal 0.14673046562892958 -0.9891765112740585 0
    outer loop
      vertex -0.2450428530573845 2.4879618138074875 -4
      vertex -0.48772580176591873 2.4519632011651993 4
      vertex -0.48772580176591873 2.4519632011651993 -4
    endloop
  endfacet
  facet normal 0.14673046562892958 -0.9891765112740585 0
    outer loop
      vertex -0.2450428530573845 2.4879618138074875 -4
      vertex -0.2450428530573845 2.4879618138074875 4
      vertex -0.48772580176591873 2.4519632011651993 4
    endloop
  endfacet
  facet normal 0.04906768556344164 -0.9987954556531818 0
    outer loop
      vertex 0 2.5 -4
      vertex -0.2450428530573845 2.4879618138074875 4
      vertex -0.2450428530573845 2.4879618138074875 -4
    endloop
  endfacet
  facet normal 0.04906768556344164 -0.9987954556531818 0
    outer loop
      vertex 0 2.5 -4
      vertex 0 2.5 4
      vertex -0.2450428530573845 2.4879618138074875 4
    endloop
  endfacet
  facet normal -0.04906768556344164 -0.9987954556531818 0
    outer loop
      vertex 0.2450428530573845 2.4879618138074875 -4
      vertex 0 2.5 4
      vertex 0 2.5 -4
    endloop
  endfacet
  facet normal -0.04906768556344164 -0.9987954556531818 0
    outer loop
      vertex 0.2450428530573845 2.4879618138074875 -4
      vertex 0.2450428530573845 2.4879618138074875 4
      vertex 0 2.5 4
    endloop
  endfacet
  facet normal -0.14673046562892958 -0.9891765112740585 0
    outer loop
      vertex 0.48772580176591873 2.4519632011651993 -4
      vertex 0.2450428530573845 2.4879618138074875 4
      vertex 0.2450428530573845 2.4879618138074875 -4
    endloop
  endfacet
  facet normal -0.14673046562892958 -0.9891765112740585 0
    outer loop
      vertex 0.48772580176591873 2.4519632011651993 -4
      vertex 0.48772580176591873 2.4519632011651993 4
      vertex 0.2450428530573845 2.4879618138074875 4
    endloop
  endfacet
  facet normal -0.24298018143504363 -0.9700312528108531 0
    outer loop
      vertex 0.7257116958498955 2.3923508375883102 -4
      vertex 0.48772580176591873 2.4519632011651993 4
      vertex 0.48772580176591873 2.4519632011651993 -4
    endloop
  endfacet
  facet normal -0.24298018143504363 -0.9700312528108531 0
    outer loop
      vertex 0.7257116958498955 2.3923508375883102 -4
      vertex 0.7257116958498955 2.3923508375883102 4
      vertex 0.48772580176591873 2.4519632011651993 4
    endloop
  endfacet
  facet normal -0.336889864873561 -0.9415440610749313 0
    outer loop
      vertex 0.9567085802555084 2.3096988275647163 -4
      vertex 0.7257116958498955 2.3923508375883102 4
      vertex 0.7257116958498955 2.3923508375883102 -4
    endloop
  endfacet
  facet normal -0.336889864873561 -0.9415440610749313 0
    outer loop
      vertex 0.9567085802555084 2.3096988275647163 -4
      vertex 0.9567085802555084 2.3096988275647163 4
      vertex 0.7257116958498955 2.3923508375883102 4
    endloop
  endfacet
  facet normal -0.4275550727503879 -0.9039893029043047 0
    outer loop
      vertex 1.1784918457269669 2.2048031613230705 -4
      vertex 0.9567085802555084 2.3096988275647163 4
      vertex 0.9567085802555084 2.3096988275647163 -4
    endloop
  endfacet
  facet normal -0.4275550727503879 -0.9039893029043047 0
    outer loop
      vertex 1.1784918457269669 2.2048031613230705 -4
      vertex 1.1784918457269669 2.2048031613230705 4
      vertex 0.9567085802555084 2.3096988275647163 4
    endloop
  endfacet
  facet normal -0.5141027452311838 -0.8577286093781414 0
    outer loop
      vertex 1.3889255821704865 2.0786740332841873 -4
      vertex 1.1784918457269669 2.2048031613230705 4
      vertex 1.1784918457269669 2.2048031613230705 -4
    endloop
  endfacet
  facet normal -0.5141027452311838 -0.8577286093781414 0
    outer loop
      vertex 1.3889255821704865 2.0786740332841873 -4
      vertex 1.3889255821704865 2.0786740332841873 4
      vertex 1.1784918457269669 2.2048031613230705 4
    endloop
  endfacet
  facet normal -0.5956993111009283 -0.8032075265794508 0
    outer loop
      vertex 1.5859832093119621 1.932526133954525 -4
      vertex 1.3889255821704865 2.0786740332841873 4
      vertex 1.3889255821704865 2.0786740332841873 -4
    endloop
  endfacet
  facet normal -0.5956993111009283 -0.8032075265794508 0
    outer loop
      vertex 1.5859832093119621 1.932526133954525 -4
      vertex 1.5859832093119621 1.932526133954525 4
      vertex 1.3889255821704865 2.0786740332841873 4
    endloop
  endfacet
  facet normal -0.6715589557743871 -0.740951124514441 0
    outer loop
      vertex 1.7677669525146484 1.7677669525146484 -4
      vertex 1.5859832093119621 1.932526133954525 4
      vertex 1.5859832093119621 1.932526133954525 -4
    endloop
  endfacet
  facet normal -0.6715589557743871 -0.740951124514441 0
    outer loop
      vertex 1.7677669525146484 1.7677669525146484 -4
      vertex 1.7677669525146484 1.7677669525146484 4
      vertex 1.5859832093119621 1.932526133954525 4
    endloop
  endfacet
  facet normal -0.740951124514441 -0.6715589557743871 0
    outer loop
      vertex 1.932526133954525 1.5859832093119621 -4
      vertex 1.7677669525146484 1.7677669525146484 4
      vertex 1.7677669525146484 1.7677669525146484 -4
    endloop
  endfacet
  facet normal -0.740951124514441 -0.6715589557743871 0
    outer loop
      vertex 1.932526133954525 1.5859832093119621 -4
      vertex 1.932526133954525 1.5859832093119621 4
      vertex 1.7677669525146484 1.7677669525146484 4
    endloop
  endfacet
  facet normal -0.8032075265794508 -0.5956993111009283 0
    outer loop
      vertex 2.0786740332841873 1.3889255821704865 -4
      vertex 1.932526133954525 1.5859832093119621 4
      vertex 1.932526133954525 1.5859832093119621 -4
    endloop
  endfacet
  facet normal -0.8032075265794508 -0.5956993111009283 0
    outer loop
      vertex 2.0786740332841873 1.3889255821704865 -4
      vertex 2.0786740332841873 1.3889255821704865 4
      vertex 1.932526133954525 1.5859832093119621 4
    endloop
  endfacet
  facet normal -0.8577286093781414 -0.5141027452311838 0
    outer loop
      vertex 2.2048031613230705 1.1784918457269669 -4
      vertex 2.0786740332841873 1.3889255821704865 4
      vertex 2.0786740332841873 1.3889255821704865 -4
    endloop
  endfacet
  facet normal -0.8577286093781414 -0.5141027452311838 0
    outer loop
      vertex 2.2048031613230705 1.1784918457269669 -4
      vertex 2.2048031613230705 1.1784918457269669 4
      vertex 2.0786740332841873 1.3889255821704865 4
    endloop
  endfacet
  facet normal -0.9039893029043047 -0.4275550727503879 0
    outer loop
      vertex 2.3096988275647163 0.9567085802555084 -4
      vertex 2.2048031613230705 1.1784918457269669 4
      vertex 2.2048031613230705 1.1784918457269669 -4
    endloop
  endfacet
  facet normal -0.9039893029043047 -0.4275550727503879 0
    outer loop
      vertex 2.3096988275647163 0.9567085802555084 -4
      vertex 2.3096988275647163 0.9567085802555084 4
      vertex 2.2048031613230705 1.1784918457269669 4
    endloop
  endfacet
  facet normal -0.9415440610749313 -0.336889864873561 0
    outer loop
      vertex 2.3923508375883102 0.7257116958498955 -4
      vertex 2.3096988275647163 0.9567085802555084 4
      vertex 2.3096988275647163 0.9567085802555084 -4
    endloop
  endfacet
  facet normal -0.9415440610749313 -0.336889864873561 0
    outer loop
      vertex 2.3923508375883102 0.7257116958498955 -4
      vertex 2.3923508375883102 0.7257116958498955 4
      vertex 2.3096988275647163 0.9567085802555084 4
    endloop
  endfacet
  facet normal -0.9700312528108531 -0.24298018143504363 0
    outer loop
      vertex 2.4519632011651993 0.48772580176591873 -4
      vertex 2.3923508375883102 0.7257116958498955 4
      vertex 2.3923508375883102 0.7257116958498955 -4
    endloop
  endfacet
  facet normal -0.9700312528108531 -0.24298018143504363 0
    outer loop
      vertex 2.4519632011651993 0.48772580176591873 -4
      vertex 2.4519632011651993 0.48772580176591873 4
      vertex 2.3923508375883102 0.7257116958498955 4
    endloop
  endfacet
  facet normal -0.9891765112740585 -0.14673046562892958 0
    outer loop
      vertex 2.4879618138074875 0.2450428530573845 -4
      vertex 2.4519632011651993 0.48772580176591873 4
      vertex 2.4519632011651993 0.48772580176591873 -4
    endloop
  endfacet
  facet normal -0.9891765112740585 -0.14673046562892958 0
    outer loop
      vertex 2.4879618138074875 0.2450428530573845 -4
      vertex 2.4879618138074875 0.2450428530573845 4
      vertex 2.4519632011651993 0.48772580176591873 4
    endloop
  endfacet
  facet normal -0.9987954556531818 -0.04906768556344164 0
    outer loop
      vertex 2.5 0 -4
      vertex 2.4879618138074875 0.2450428530573845 4
      vertex 2.4879618138074875 0.2450428530573845 -4
    endloop
  endfacet
  facet normal -0.9987954556531818 -0.04906768556344164 0
    outer loop
      vertex 2.5 0 -4
      vertex 2.5 0 4
      vertex 2.4879618138074875 0.2450428530573845 4
    endloop
  endfacet
  facet normal 0 -1 0
    outer loop
      vertex 40 0 -4
      vertex 2.5 0 4
      vertex 2.5 0 -4
    endloop
  endfacet
  facet normal 0 -1 0
    outer loop
      vertex 40 0 -4
      vertex 40 0 4
      vertex 2.5 0 4
    endloop
  endfacet
  facet normal 1 0 0
    outer loop
      vertex 40 25 -4
      vertex 40 0 4
      vertex 40 0 -4
    endloop
  endfacet
  facet normal 1 0 0
    outer loop
      vertex 40 25 -4
      vertex 40 25 4
      vertex 40 0 4
    endloop
  endfacet
  facet normal 0 1 0
    outer loop
      vertex -25 25 -4
      vertex 40 25 4
      vertex 40 25 -4
    endloop
  endfacet
  facet normal 0 1 0
    outer loop
      vertex -25 25 -4
      vertex -25 25 4
      vertex 40 25 4
    endloop
  endfacet
  facet normal -1 0 0
    outer loop
      vertex -25 -80 -4
      vertex -25 25 4
      vertex -25 25 -4
    endloop
  endfacet
  facet normal -1 0 0
    outer loop
      vertex -25 -80 -4
      vertex -25 -80 4
      vertex -25 25 4
    endloop
  endfacet
  facet normal 0 -1 0
    outer loop
      vertex 0 -80 -4
      vertex -25 -80 4
      vertex -25 -80 -4
    endloop
  endfacet
  facet normal 0 -1 0
    outer loop
      vertex 0 -80 -4
      vertex 0 -80 4
      vertex -25 -80 4
    endloop
  endfacet
  facet normal 1 0 0
    outer loop
      vertex 0 -2.5 -4
      vertex 0 -80 4
      vertex 0 -80 -4
    endloop
  endfacet
  facet normal 1 0 0
    outer loop
      vertex 0 -2.5 -4
      vertex 0 -2.5 4
      vertex 0 -80 4
    endloop
  endfacet
  facet normal 0 0 -1
    outer loop
      vertex -0.48772580176591873 -2.4519632011651993 -4
      vertex 0 -80 -4
      vertex -0.7257116958498955 -2.3923508375883102 -4
    endloop
  endfacet
  facet normal 0 0 -1
    outer loop
      vertex -0.7257116958498955 -2.3923508375883102 -4
      vertex -25 -80 -4
      vertex -0.9567085802555084 -2.3096988275647163 -4
    endloop
  endfacet
  facet normal 0 0 -1
    outer loop
      vertex 0 -80 -4
      vertex -25 -80 -4
      vertex -0.7257116958498955 -2.3923508375883102 -4
    endloop
  endfacet
  facet normal 0 0 -1
    outer loop
      vertex -0.48772580176591873 -2.4519632011651993 -4
      vertex -0.2450428530573845 -2.4879618138074875 -4
      vertex 0 -80 -4
    endloop
  endfacet
  facet normal 0 0 -1
    outer loop
      vertex -0.9567085802555084 -2.3096988275647163 -4
      vertex -25 -80 -4
      vertex -1.1784918457269669 -2.2048031613230705 -4
    endloop
  endfacet
  facet normal 0 0 -1
    outer loop
      vertex -1.1784918457269669 -2.2048031613230705 -4
      vertex -25 -80 -4
      vertex -1.3889255821704865 -2.0786740332841873 -4
    endloop
  endfacet
  facet normal 0 0 -1
    outer loop
      vertex -1.3889255821704865 -2.0786740332841873 -4
      vertex -25 -80 -4
      vertex -1.5859832093119621 -1.932526133954525 -4
    endloop
  endfacet
  facet normal 0 0 -1
    outer loop
      vertex -1.5859832093119621 -1.932526133954525 -4
      vertex -25 -80 -4
      vertex -1.7677669525146484 -1.7677669525146484 -4
    endloop
  endfacet
  facet normal 0 0 -1
    outer loop
      vertex -1.7677669525146484 -1.7677669525146484 -4
      vertex -25 -80 -4
      vertex -1.932526133954525 -1.5859832093119621 -4
    endloop
  endfacet
  facet normal 0 0 -1
    outer loop
      vertex -25 -80 -4
      vertex -2.2048031613230705 -1.1784918457269669 -4
      vertex -2.0786740332841873 -1.3889255821704865 -4
    endloop
  endfacet
  facet normal 0 0 -1
    outer loop
      vertex -25 -80 -4
      vertex -2.3096988275647163 -0.9567085802555084 -4
      vertex -2.2048031613230705 -1.1784918457269669 -4
    endloop
  endfacet
  facet normal 0 0 -1
    outer loop
      vertex -25 -80 -4
      vertex -25 25 -4
      vertex -2.3096988275647163 -0.9567085802555084 -4
    endloop
  endfacet
  facet normal 0 0 -1
    outer loop
      vertex -2.3096988275647163 -0.9567085802555084 -4
      vertex -25 25 -4
      vertex -2.3923508375883102 -0.7257116958498955 -4
    endloop
  endfacet
  facet normal 0 0 -1
    outer loop
      vertex -2.3923508375883102 -0.7257116958498955 -4
      vertex -25 25 -4
      vertex -2.4519632011651993 -0.48772580176591873 -4
    endloop
  endfacet
  facet normal 0 0 -1
    outer loop
      vertex -2.4519632011651993 -0.48772580176591873 -4
      vertex -25 25 -4
      vertex -2.4879618138074875 -0.2450428530573845 -4
    endloop
  endfacet
  facet normal 0 0 -1
    outer loop
      vertex -2.4879618138074875 -0.2450428530573845 -4
      vertex -25 25 -4
      vertex -2.5 0 -4
    endloop
  endfacet
  facet normal 0 0 -1
    outer loop
      vertex -2.5 0 -4
      vertex -25 25 -4
      vertex -2.4879618138074875 0.2450428530573845 -4
    endloop
  endfacet
  facet normal 0 0 -1
    outer loop
      vertex -2.4879618138074875 0.2450428530573845 -4
      vertex -25 25 -4
      vertex -2.4519632011651993 0.48772580176591873 -4
    endloop
  endfacet
  facet normal 0 0 -1
    outer loop
      vertex -2.4519632011651993 0.48772580176591873 -4
      vertex -25 25 -4
      vertex -2.3923508375883102 0.7257116958498955 -4
    endloop
  endfacet
  facet normal 0 0 -1
    outer loop
      vertex -2.3923508375883102 0.7257116958498955 -4
      vertex -25 25 -4
      vertex -2.3096988275647163 0.9567085802555084 -4
    endloop
  endfacet
  facet normal 0 0 -1
    outer loop
      vertex -2.3096988275647163 0.9567085802555084 -4
      vertex -25 25 -4
      vertex -2.2048031613230705 1.1784918457269669 -4
    endloop
  endfacet
  facet normal 0 0 -1
    outer loop
      vertex -2.2048031613230705 1.1784918457269669 -4
      vertex -25 25 -4
      vertex -2.0786740332841873 1.3889255821704865 -4
    endloop
  endfacet
  facet normal 0 0 -1
    outer loop
      vertex -2.0786740332841873 1.3889255821704865 -4
      vertex -25 25 -4
      vertex -1.932526133954525 1.5859832093119621 -4
    endloop
  endfacet
  facet normal 0 0 -1
    outer loop
      vertex -1.932526133954525 1.5859832093119621 -4
      vertex -25 25 -4
      vertex -1.7677669525146484 1.7677669525146484 -4
    endloop
  endfacet
  facet normal 0 0 -1
    outer loop
      vertex -1.7677669525146484 1.7677669525146484 -4
      vertex -25 25 -4
      vertex -1.5859832093119621 1.932526133954525 -4
    endloop
  endfacet
  facet normal 0 0 -1
    outer loop
      vertex -1.5859832093119621 1.932526133954525 -4
      vertex -25 25 -4
      vertex -1.3889255821704865 2.0786740332841873 -4
    endloop
  endfacet
  facet normal 0 0 -1
    outer loop
      vertex -1.3889255821704865 2.0786740332841873 -4
      vertex -25 25 -4
      vertex -1.1784918457269669 2.2048031613230705 -4
    endloop
  endfacet
  facet normal 0 0 -1
    outer loop
      vertex -25 25 -4
      vertex -0.7257116958498955 2.3923508375883102 -4
      vertex -0.9567085802555084 2.3096988275647163 -4
    endloop
  endfacet
  facet normal 0 0 -1
    outer loop
      vertex -25 25 -4
      vertex -0.48772580176591873 2.4519632011651993 -4
      vertex -0.7257116958498955 2.3923508375883102 -4
    endloop
  endfacet
  facet normal 0 0 -1
    outer loop
      vertex -25 25 -4
      vertex -0.2450428530573845 2.4879618138074875 -4
      vertex -0.48772580176591873 2.4519632011651993 -4
    endloop
  endfacet
  facet normal 0 0 -1
    outer loop
      vertex -25 25 -4
      vertex 0 2.5 -4
      vertex -0.2450428530573845 2.4879618138074875 -4
    endloop
  endfacet
  facet normal 0 0 -1
    outer loop
      vertex -25 25 -4
      vertex 0.2450428530573845 2.4879618138074875 -4
      vertex 0 2.5 -4
    endloop
  endfacet
  facet normal 0 0 -1
    outer loop
      vertex -25 25 -4
      vertex 0.48772580176591873 2.4519632011651993 -4
      vertex 0.2450428530573845 2.4879618138074875 -4
    endloop
  endfacet
  facet normal 0 0 -1
    outer loop
      vertex 40 25 -4
      vertex 0.7257116958498955 2.3923508375883102 -4
      vertex 0.48772580176591873 2.4519632011651993 -4
    endloop
  endfacet
  facet normal 0 0 -1
    outer loop
      vertex 40 25 -4
      vertex 0.9567085802555084 2.3096988275647163 -4
      vertex 0.7257116958498955 2.3923508375883102 -4
    endloop
  endfacet
  facet normal 0 0 -1
    outer loop
      vertex 40 25 -4
      vertex 1.1784918457269669 2.2048031613230705 -4
      vertex 0.9567085802555084 2.3096988275647163 -4
    endloop
  endfacet
  facet normal 0 0 -1
    outer loop
      vertex 40 25 -4
      vertex 1.3889255821704865 2.0786740332841873 -4
      vertex 1.1784918457269669 2.2048031613230705 -4
    endloop
  endfacet
  facet normal 0 0 -1
    outer loop
      vertex 40 25 -4
      vertex 1.5859832093119621 1.932526133954525 -4
      vertex 1.3889255821704865 2.0786740332841873 -4
    endloop
  endfacet
  facet normal 0 0 -1
    outer loop
      vertex 40 25 -4
      vertex 1.7677669525146484 1.7677669525146484 -4
      vertex 1.5859832093119621 1.932526133954525 -4
    endloop
  endfacet
  facet normal 0 0 -1
    outer loop
      vertex 40 25 -4
      vertex 1.932526133954525 1.5859832093119621 -4
      vertex 1.7677669525146484 1.7677669525146484 -4
    endloop
  endfacet
  facet normal 0 0 -1
    outer loop
      vertex 40 25 -4
      vertex 2.0786740332841873 1.3889255821704865 -4
      vertex 1.932526133954525 1.5859832093119621 -4
    endloop
  endfacet
  facet normal 0 0 -1
    outer loop
      vertex 40 25 -4
      vertex 2.2048031613230705 1.1784918457269669 -4
      vertex 2.0786740332841873 1.3889255821704865 -4
    endloop
  endfacet
  facet normal 0 0 -1
    outer loop
      vertex 40 25 -4
      vertex 40 0 -4
      vertex 2.2048031613230705 1.1784918457269669 -4
    endloop
  endfacet
  facet normal 0 0 -1
    outer loop
      vertex 2.2048031613230705 1.1784918457269669 -4
      vertex 40 0 -4
      vertex 2.3096988275647163 0.9567085802555084 -4
    endloop
  endfacet
  facet normal 0 0 -1
    outer loop
      vertex 2.3096988275647163 0.9567085802555084 -4
      vertex 40 0 -4
      vertex 2.3923508375883102 0.7257116958498955 -4
    endloop
  endfacet
  facet normal 0 0 -1
    outer loop
      vertex 2.3923508375883102 0.7257116958498955 -4
      vertex 40 0 -4
      vertex 2.4519632011651993 0.48772580176591873 -4
    endloop
  endfacet
  facet normal 0 0 -1
    outer loop
      vertex 2.4519632011651993 0.48772580176591873 -4
      vertex 40 0 -4
      vertex 2.4879618138074875 0.2450428530573845 -4
    endloop
  endfacet
  facet normal 0 0 -1
    outer loop
      vertex 2.4879618138074875 0.2450428530573845 -4
      vertex 40 0 -4
      vertex 2.5 0 -4
    endloop
  endfacet
  facet normal 0 0 -1
    outer loop
      vertex 0 -80 -4
      vertex -0.2450428530573845 -2.4879618138074875 -4
      vertex 0 -2.5 -4
    endloop
  endfacet
  facet normal 0 0 -1
    outer loop
      vertex -25 25 -4
      vertex 40 25 -4
      vertex 0.48772580176591873 2.4519632011651993 -4
    endloop
  endfacet
  facet normal 0 0 -1
    outer loop
      vertex -1.1784918457269669 2.2048031613230705 -4
      vertex -25 25 -4
      vertex -0.9567085802555084 2.3096988275647163 -4
    endloop
  endfacet
  facet normal 0 0 -1
    outer loop
      vertex -1.932526133954525 -1.5859832093119621 -4
      vertex -25 -80 -4
      vertex -2.0786740332841873 -1.3889255821704865 -4
    endloop
  endfacet
  facet normal 0 0 1
    outer loop
      vertex -0.7257116958498955 -2.3923508375883102 4
      vertex 0 -80 4
      vertex -0.48772580176591873 -2.4519632011651993 4
    endloop
  endfacet
  facet normal 0 0 1
    outer loop
      vertex -0.9567085802555084 -2.3096988275647163 4
      vertex -25 -80 4
      vertex -0.7257116958498955 -2.3923508375883102 4
    endloop
  endfacet
  facet normal 0 0 1
    outer loop
      vertex -0.7257116958498955 -2.3923508375883102 4
      vertex -25 -80 4
      vertex 0 -80 4
    endloop
  endfacet
  facet normal 0 0 1
    outer loop
      vertex 0 -80 4
      vertex -0.2450428530573845 -2.4879618138074875 4
      vertex -0.48772580176591873 -2.4519632011651993 4
    endloop
  endfacet
  facet normal 0 0 1
    outer loop
      vertex -1.1784918457269669 -2.2048031613230705 4
      vertex -25 -80 4
      vertex -0.9567085802555084 -2.3096988275647163 4
    endloop
  endfacet
  facet normal 0 0 1
    outer loop
      vertex -1.3889255821704865 -2.0786740332841873 4
      vertex -25 -80 4
      vertex -1.1784918457269669 -2.2048031613230705 4
    endloop
  endfacet
  facet normal 0 0 1
    outer loop
      vertex -1.5859832093119621 -1.932526133954525 4
      vertex -25 -80 4
      vertex -1.3889255821704865 -2.0786740332841873 4
    endloop
  endfacet
  facet normal 0 0 1
    outer loop
      vertex -1.7677669525146484 -1.7677669525146484 4
      vertex -25 -80 4
      vertex -1.5859832093119621 -1.932526133954525 4
    endloop
  endfacet
  facet normal 0 0 1
    outer loop
      vertex -1.932526133954525 -1.5859832093119621 4
      vertex -25 -80 4
      vertex -1.7677669525146484 -1.7677669525146484 4
    endloop
  endfacet
  facet normal 0 0 1
    outer loop
      vertex -2.0786740332841873 -1.3889255821704865 4
      vertex -2.2048031613230705 -1.1784918457269669 4
      vertex -25 -80 4
    endloop
  endfacet
  facet normal 0 0 1
    outer loop
      vertex -2.2048031613230705 -1.1784918457269669 4
      vertex -2.3096988275647163 -0.9567085802555084 4
      vertex -25 -80 4
    endloop
  endfacet
  facet normal 0 0 1
    outer loop
      vertex -2.3096988275647163 -0.9567085802555084 4
      vertex -25 25 4
      vertex -25 -80 4
    endloop
  endfacet
  facet normal 0 0 1
    outer loop
      vertex -2.3923508375883102 -0.7257116958498955 4
      vertex -25 25 4
      vertex -2.3096988275647163 -0.9567085802555084 4
    endloop
  endfacet
  facet normal 0 0 1
    outer loop
      vertex -2.4519632011651993 -0.48772580176591873 4
      vertex -25 25 4
      vertex -2.3923508375883102 -0.7257116958498955 4
    endloop
  endfacet
  facet normal 0 0 1
    outer loop
      vertex -2.4879618138074875 -0.2450428530573845 4
      vertex -25 25 4
      vertex -2.4519632011651993 -0.48772580176591873 4
    endloop
  endfacet
  facet normal 0 0 1
    outer loop
      vertex -2.5 0 4
      vertex -25 25 4
      vertex -2.4879618138074875 -0.2450428530573845 4
    endloop
  endfacet
  facet normal 0 0 1
    outer loop
      vertex -2.4879618138074875 0.2450428530573845 4
      vertex -25 25 4
      vertex -2.5 0 4
    endloop
  endfacet
  facet normal 0 0 1
    outer loop
      vertex -2.4519632011651993 0.48772580176591873 4
      vertex -25 25 4
      vertex -2.4879618138074875 0.2450428530573845 4
    endloop
  endfacet
  facet normal 0 0 1
    outer loop
      vertex -2.3923508375883102 0.7257116958498955 4
      vertex -25 25 4
      vertex -2.4519632011651993 0.48772580176591873 4
    endloop
  endfacet
  facet normal 0 0 1
    outer loop
      vertex -2.3096988275647163 0.9567085802555084 4
      vertex -25 25 4
      vertex -2.3923508375883102 0.7257116958498955 4
    endloop
  endfacet
  facet normal 0 0 1
    outer loop
      vertex -2.2048031613230705 1.1784918457269669 4
      vertex -25 25 4
      vertex -2.3096988275647163 0.9567085802555084 4
    endloop
  endfacet
  facet normal 0 0 1
    outer loop
      vertex -2.0786740332841873 1.3889255821704865 4
      vertex -25 25 4
      vertex -2.2048031613230705 1.1784918457269669 4
    endloop
  endfacet
  facet normal 0 0 1
    outer loop
      vertex -1.932526133954525 1.5859832093119621 4
      vertex -25 25 4
      vertex -2.0786740332841873 1.3889255821704865 4
    endloop
  endfacet
  facet normal 0 0 1
    outer loop
      vertex -1.7677669525146484 1.7677669525146484 4
      vertex -25 25 4
      vertex -1.932526133954525 1.5859832093119621 4
    endloop
  endfacet
  facet normal 0 0 1
    outer loop
      vertex -1.5859832093119621 1.932526133954525 4
      vertex -25 25 4
      vertex -1.7677669525146484 1.7677669525146484 4
    endloop
  endfacet
  facet normal 0 0 1
    outer loop
      vertex -1.3889255821704865 2.0786740332841873 4
      vertex -25 25 4
      vertex -1.5859832093119621 1.932526133954525 4
    endloop
  endfacet
  facet normal 0 0 1
    outer loop
      vertex -1.1784918457269669 2.2048031613230705 4
      vertex -25 25 4
      vertex -1.3889255821704865 2.0786740332841873 4
    endloop
  endfacet
  facet normal 0 0 1
    outer loop
      vertex -0.9567085802555084 2.3096988275647163 4
      vertex -0.7257116958498955 2.3923508375883102 4
      vertex -25 25 4
    endloop
  endfacet
  facet normal 0 0 1
    outer loop
      vertex -0.7257116958498955 2.3923508375883102 4
      vertex -0.48772580176591873 2.4519632011651993 4
      vertex -25 25 4
    endloop
  endfacet
  facet normal 0 0 1
    outer loop
      vertex -0.48772580176591873 2.4519632011651993 4
      vertex -0.2450428530573845 2.4879618138074875 4
      vertex -25 25 4
    endloop
  endfacet
  facet normal 0 0 1
    outer loop
      vertex -0.2450428530573845 2.4879618138074875 4
      vertex 0 2.5 4
      vertex -25 25 4
    endloop
  endfacet
  facet normal 0 0 1
    outer loop
      vertex 0 2.5 4
      vertex 0.2450428530573845 2.4879618138074875 4
      vertex -25 25 4
    endloop
  endfacet
  facet normal 0 0 1
    outer loop
      vertex 0.2450428530573845 2.4879618138074875 4
      vertex 0.48772580176591873 2.4519632011651993 4
      vertex -25 25 4
    endloop
  endfacet
  facet normal 0 0 1
    outer loop
      vertex 0.48772580176591873 2.4519632011651993 4
      vertex 0.7257116958498955 2.3923508375883102 4
      vertex 40 25 4
    endloop
  endfacet
  facet normal 0 0 1
    outer loop
      vertex 0.7257116958498955 2.3923508375883102 4
      vertex 0.9567085802555084 2.3096988275647163 4
      vertex 40 25 4
    endloop
  endfacet
  facet normal 0 0 1
    outer loop
      vertex 0.9567085802555084 2.3096988275647163 4
      vertex 1.1784918457269669 2.2048031613230705 4
      vertex 40 25 4
    endloop
  endfacet
  facet normal 0 0 1
    outer loop
      vertex 1.1784918457269669 2.2048031613230705 4
      vertex 1.3889255821704865 2.0786740332841873 4
      vertex 40 25 4
    endloop
  endfacet
  facet normal 0 0 1
    outer loop
      vertex 1.3889255821704865 2.0786740332841873 4
      vertex 1.5859832093119621 1.932526133954525 4
      vertex 40 25 4
    endloop
  endfacet
  facet normal 0 0 1
    outer loop
      vertex 1.5859832093119621 1.932526133954525 4
      vertex 1.7677669525146484 1.7677669525146484 4
      vertex 40 25 4
    endloop
  endfacet
  facet normal 0 0 1
    outer loop
      vertex 1.7677669525146484 1.7677669525146484 4
      vertex 1.932526133954525 1.5859832093119621 4
      vertex 40 25 4
    endloop
  endfacet
  facet normal 0 0 1
    outer loop
      vertex 1.932526133954525 1.5859832093119621 4
      vertex 2.0786740332841873 1.3889255821704865 4
      vertex 40 25 4
    endloop
  endfacet
  facet normal 0 0 1
    outer loop
      vertex 2.0786740332841873 1.3889255821704865 4
      vertex 2.2048031613230705 1.1784918457269669 4
      vertex 40 25 4
    endloop
  endfacet
  facet normal 0 0 1
    outer loop
      vertex 2.2048031613230705 1.1784918457269669 4
      vertex 40 0 4
      vertex 40 25 4
    endloop
  endfacet
  facet normal 0 0 1
    outer loop
      vertex 2.3096988275647163 0.9567085802555084 4
      vertex 40 0 4
      vertex 2.2048031613230705 1.1784918457269669 4
    endloop
  endfacet
  facet normal 0 0 1
    outer loop
      vertex 2.3923508375883102 0.7257116958498955 4
      vertex 40 0 4
      vertex 2.3096988275647163 0.9567085802555084 4
    endloop
  endfacet
  facet normal 0 0 1
    outer loop
      vertex 2.4519632011651993 0.48772580176591873 4
      vertex 40 0 4
      vertex 2.3923508375883102 0.7257116958498955 4
    endloop
  endfacet
  facet normal 0 0 1
    outer loop
      vertex 2.4879618138074875 0.2450428530573845 4
      vertex 40 0 4
      vertex 2.4519632011651993 0.48772580176591873 4
    endloop
  endfacet
  facet normal 0 0 1
    outer loop
      vertex 2.5 0 4
      vertex 40 0 4
      vertex 2.4879618138074875 0.2450428530573845 4
    endloop
  endfacet
  facet normal 0 0 1
    outer loop
      vertex 0 -2.5 4
      vertex -0.2450428530573845 -2.4879618138074875 4
      vertex 0 -80 4
    endloop
  endfacet
  facet normal 0 0 1
    outer loop
      vertex 0.48772580176591873 2.4519632011651993 4
      vertex 40 25 4
      vertex -25 25 4
    endloop
  endfacet
  facet normal 0 0 1
    outer loop
      vertex -0.9567085802555084 2.3096988275647163 4
      vertex -25 25 4
      vertex -1.1784918457269669 2.2048031613230705 4
    endloop
  endfacet
  facet normal 0 0 1
    outer loop
      vertex -2.0786740332841873 -1.3889255821704865 4
      vertex -25 -80 4
      vertex -1.932526133954525 -1.5859832093119621 4
    endloop
  endfacet
endsolid OpenSCAD_Model
